<mxfile host="app.diagrams.net" agent="Mozilla/5.0 (X11; Linux x86_64) AppleWebKit/537.36 (KHTML, like Gecko) Chrome/140.0.0.0 Safari/537.36" version="28.2.5">
  <diagram name="Page-1" id="dyrlHNGQ7euA1YF0xYj-">
    <mxGraphModel dx="3859" dy="1773" grid="1" gridSize="10" guides="1" tooltips="1" connect="1" arrows="1" fold="1" page="1" pageScale="1" pageWidth="850" pageHeight="1100" math="0" shadow="0">
      <root>
        <mxCell id="0" />
        <mxCell id="1" parent="0" />
        <mxCell id="xtQ_pNsmMMkoU3z8Dazb-2" value="GEOINT" style="swimlane;whiteSpace=wrap;html=1;fillColor=#fff2cc;strokeColor=#FFF2CC;backgroundOutline=0;container=1;fillStyle=auto;swimlaneFillColor=#FFFEF2;" vertex="1" parent="1">
          <mxGeometry x="230" y="230" width="2210" height="560" as="geometry" />
        </mxCell>
        <mxCell id="xtQ_pNsmMMkoU3z8Dazb-3" value="TERRAIN ANALYSIS" style="swimlane;whiteSpace=wrap;html=1;fillColor=#CC9D41;fontColor=#ffffff;strokeColor=#6D1F00;swimlaneFillColor=light-dark(#F2BA4D,#EDEDED);" vertex="1" parent="xtQ_pNsmMMkoU3z8Dazb-2">
          <mxGeometry x="135" y="100" width="200" height="200" as="geometry" />
        </mxCell>
        <mxCell id="xtQ_pNsmMMkoU3z8Dazb-11" value="/terrain-analysis" style="rounded=0;whiteSpace=wrap;html=1;fillColor=none;" vertex="1" parent="xtQ_pNsmMMkoU3z8Dazb-3">
          <mxGeometry x="40" y="40" width="120" height="130" as="geometry" />
        </mxCell>
        <mxCell id="xtQ_pNsmMMkoU3z8Dazb-4" value="PATH PLANNING" style="swimlane;whiteSpace=wrap;html=1;startSize=23;fillColor=#d5e8d4;strokeColor=#82b366;swimlaneFillColor=#EEFFEC;" vertex="1" parent="xtQ_pNsmMMkoU3z8Dazb-2">
          <mxGeometry x="620" y="110" width="1150" height="200" as="geometry" />
        </mxCell>
        <mxCell id="xtQ_pNsmMMkoU3z8Dazb-35" value="/area-selection" style="rounded=0;whiteSpace=wrap;html=1;fillColor=none;" vertex="1" parent="xtQ_pNsmMMkoU3z8Dazb-4">
          <mxGeometry x="40" y="30" width="120" height="130" as="geometry" />
        </mxCell>
        <mxCell id="xtQ_pNsmMMkoU3z8Dazb-43" value="/create-new-profile" style="rounded=0;whiteSpace=wrap;html=1;fillColor=none;" vertex="1" parent="xtQ_pNsmMMkoU3z8Dazb-4">
          <mxGeometry x="210" y="30" width="120" height="130" as="geometry" />
        </mxCell>
        <mxCell id="xtQ_pNsmMMkoU3z8Dazb-61" style="edgeStyle=orthogonalEdgeStyle;rounded=0;orthogonalLoop=1;jettySize=auto;html=1;exitX=0.5;exitY=1;exitDx=0;exitDy=0;" edge="1" parent="xtQ_pNsmMMkoU3z8Dazb-4" source="xtQ_pNsmMMkoU3z8Dazb-45">
          <mxGeometry relative="1" as="geometry">
            <mxPoint x="470" y="200" as="targetPoint" />
            <Array as="points">
              <mxPoint x="440" y="230" />
              <mxPoint x="470" y="230" />
            </Array>
          </mxGeometry>
        </mxCell>
        <mxCell id="xtQ_pNsmMMkoU3z8Dazb-45" value="/select-profile" style="rounded=0;whiteSpace=wrap;html=1;fillColor=none;" vertex="1" parent="xtQ_pNsmMMkoU3z8Dazb-4">
          <mxGeometry x="380" y="30" width="120" height="130" as="geometry" />
        </mxCell>
        <mxCell id="xtQ_pNsmMMkoU3z8Dazb-68" style="edgeStyle=orthogonalEdgeStyle;rounded=0;orthogonalLoop=1;jettySize=auto;html=1;exitX=1;exitY=0;exitDx=0;exitDy=0;" edge="1" parent="xtQ_pNsmMMkoU3z8Dazb-4" source="xtQ_pNsmMMkoU3z8Dazb-46">
          <mxGeometry relative="1" as="geometry">
            <mxPoint x="770" y="-200" as="targetPoint" />
            <Array as="points">
              <mxPoint x="670" y="-50" />
              <mxPoint x="770" y="-50" />
            </Array>
          </mxGeometry>
        </mxCell>
        <mxCell id="xtQ_pNsmMMkoU3z8Dazb-46" value="/get-profiles" style="rounded=0;whiteSpace=wrap;html=1;fillColor=none;" vertex="1" parent="xtQ_pNsmMMkoU3z8Dazb-4">
          <mxGeometry x="550" y="30" width="120" height="130" as="geometry" />
        </mxCell>
        <mxCell id="xtQ_pNsmMMkoU3z8Dazb-47" value="/costmap-generation" style="rounded=0;whiteSpace=wrap;html=1;fillColor=none;" vertex="1" parent="xtQ_pNsmMMkoU3z8Dazb-4">
          <mxGeometry x="710" y="30" width="120" height="130" as="geometry" />
        </mxCell>
        <mxCell id="xtQ_pNsmMMkoU3z8Dazb-90" style="edgeStyle=orthogonalEdgeStyle;rounded=0;orthogonalLoop=1;jettySize=auto;html=1;exitX=1;exitY=0;exitDx=0;exitDy=0;" edge="1" parent="xtQ_pNsmMMkoU3z8Dazb-4" source="xtQ_pNsmMMkoU3z8Dazb-48">
          <mxGeometry relative="1" as="geometry">
            <mxPoint x="1070" y="-200" as="targetPoint" />
            <Array as="points">
              <mxPoint x="980" y="-60" />
              <mxPoint x="1070" y="-60" />
              <mxPoint x="1070" y="-200" />
            </Array>
          </mxGeometry>
        </mxCell>
        <mxCell id="xtQ_pNsmMMkoU3z8Dazb-48" value="/graph-building" style="rounded=0;whiteSpace=wrap;html=1;fillColor=none;" vertex="1" parent="xtQ_pNsmMMkoU3z8Dazb-4">
          <mxGeometry x="860" y="30" width="120" height="130" as="geometry" />
        </mxCell>
        <mxCell id="xtQ_pNsmMMkoU3z8Dazb-80" style="edgeStyle=orthogonalEdgeStyle;rounded=0;orthogonalLoop=1;jettySize=auto;html=1;exitX=0.75;exitY=1;exitDx=0;exitDy=0;entryX=0.25;entryY=1;entryDx=0;entryDy=0;jumpStyle=none;" edge="1" parent="xtQ_pNsmMMkoU3z8Dazb-4" source="xtQ_pNsmMMkoU3z8Dazb-4" target="xtQ_pNsmMMkoU3z8Dazb-47">
          <mxGeometry relative="1" as="geometry">
            <Array as="points">
              <mxPoint x="810" y="200" />
              <mxPoint x="810" y="220" />
              <mxPoint x="740" y="220" />
            </Array>
          </mxGeometry>
        </mxCell>
        <mxCell id="xtQ_pNsmMMkoU3z8Dazb-108" style="edgeStyle=orthogonalEdgeStyle;rounded=0;orthogonalLoop=1;jettySize=auto;html=1;exitX=1;exitY=0.75;exitDx=0;exitDy=0;" edge="1" parent="xtQ_pNsmMMkoU3z8Dazb-2" source="xtQ_pNsmMMkoU3z8Dazb-5">
          <mxGeometry relative="1" as="geometry">
            <mxPoint x="2370" y="260" as="targetPoint" />
          </mxGeometry>
        </mxCell>
        <mxCell id="xtQ_pNsmMMkoU3z8Dazb-5" value="GEOLOCATION" style="swimlane;whiteSpace=wrap;html=1;fillColor=#E3C800;fontColor=#000000;strokeColor=#B09500;swimlaneFillColor=#FFE100;" vertex="1" parent="xtQ_pNsmMMkoU3z8Dazb-2">
          <mxGeometry x="1870" y="110" width="200" height="200" as="geometry" />
        </mxCell>
        <mxCell id="xtQ_pNsmMMkoU3z8Dazb-20" value="DEM .tiff&lt;br&gt;SATTELITE .tiff" style="text;html=1;align=center;verticalAlign=middle;resizable=0;points=[];autosize=1;strokeColor=none;fillColor=none;" vertex="1" parent="xtQ_pNsmMMkoU3z8Dazb-2">
          <mxGeometry x="10" y="200" width="110" height="40" as="geometry" />
        </mxCell>
        <mxCell id="xtQ_pNsmMMkoU3z8Dazb-28" value="ZMQ PUB/SUB&lt;div&gt;TOPIC:&lt;/div&gt;&lt;div&gt;terrain-analysis-progress&lt;/div&gt;" style="text;html=1;align=center;verticalAlign=middle;resizable=0;points=[];autosize=1;strokeColor=none;fillColor=none;" vertex="1" parent="xtQ_pNsmMMkoU3z8Dazb-2">
          <mxGeometry x="277" y="30" width="160" height="60" as="geometry" />
        </mxCell>
        <mxCell id="xtQ_pNsmMMkoU3z8Dazb-32" value="TERRAIN ANALYSIS&lt;br&gt;LAYERS&amp;nbsp;&lt;br&gt;(terrain slope,&lt;div&gt;airports&lt;div&gt;ports, roads.&lt;/div&gt;&lt;div&gt;&lt;span style=&quot;background-color: transparent; color: light-dark(rgb(0, 0, 0), rgb(255, 255, 255));&quot;&gt;buildings,&lt;/span&gt;&lt;/div&gt;&lt;div&gt;&lt;span style=&quot;background-color: transparent; color: light-dark(rgb(0, 0, 0), rgb(255, 255, 255));&quot;&gt;forests etc.)&lt;br&gt;,tiff format&lt;/span&gt;&lt;/div&gt;&lt;/div&gt;" style="text;html=1;align=center;verticalAlign=middle;resizable=0;points=[];autosize=1;strokeColor=none;fillColor=none;" vertex="1" parent="xtQ_pNsmMMkoU3z8Dazb-2">
          <mxGeometry x="230" y="385" width="140" height="130" as="geometry" />
        </mxCell>
        <mxCell id="xtQ_pNsmMMkoU3z8Dazb-37" value="REST API&lt;br&gt;POST REQUEST&lt;div&gt;BODY: ROI (JSON)&lt;/div&gt;" style="text;html=1;align=center;verticalAlign=middle;resizable=0;points=[];autosize=1;strokeColor=none;fillColor=none;" vertex="1" parent="xtQ_pNsmMMkoU3z8Dazb-2">
          <mxGeometry x="553" y="30" width="130" height="60" as="geometry" />
        </mxCell>
        <mxCell id="xtQ_pNsmMMkoU3z8Dazb-39" value="RETRIEVE&lt;br&gt;TERRAIN ANALYSIS&lt;br&gt;LAYERS" style="text;html=1;align=center;verticalAlign=middle;resizable=0;points=[];autosize=1;strokeColor=none;fillColor=none;" vertex="1" parent="xtQ_pNsmMMkoU3z8Dazb-2">
          <mxGeometry x="520" y="395" width="140" height="60" as="geometry" />
        </mxCell>
        <mxCell id="xtQ_pNsmMMkoU3z8Dazb-42" value="SAVE CROPPED&lt;br&gt;TERRAIN ANALYSIS&lt;br&gt;LAYERS" style="text;html=1;align=center;verticalAlign=middle;resizable=0;points=[];autosize=1;strokeColor=none;fillColor=none;" vertex="1" parent="xtQ_pNsmMMkoU3z8Dazb-2">
          <mxGeometry x="710" y="397" width="140" height="60" as="geometry" />
        </mxCell>
        <mxCell id="xtQ_pNsmMMkoU3z8Dazb-49" value="/path-planning" style="rounded=0;whiteSpace=wrap;html=1;fillColor=none;" vertex="1" parent="xtQ_pNsmMMkoU3z8Dazb-2">
          <mxGeometry x="1630" y="140" width="120" height="130" as="geometry" />
        </mxCell>
        <mxCell id="xtQ_pNsmMMkoU3z8Dazb-55" value="SAVE NEW&amp;nbsp;&lt;br&gt;PROFILE" style="text;html=1;align=center;verticalAlign=middle;resizable=0;points=[];autosize=1;strokeColor=none;fillColor=none;" vertex="1" parent="xtQ_pNsmMMkoU3z8Dazb-2">
          <mxGeometry x="883" y="407" width="90" height="40" as="geometry" />
        </mxCell>
        <mxCell id="xtQ_pNsmMMkoU3z8Dazb-60" value="RETRIEVE &lt;br&gt;SELECTED &lt;br&gt;PROFILE" style="text;html=1;align=center;verticalAlign=middle;resizable=0;points=[];autosize=1;strokeColor=none;fillColor=none;" vertex="1" parent="xtQ_pNsmMMkoU3z8Dazb-2">
          <mxGeometry x="1000" y="398" width="90" height="60" as="geometry" />
        </mxCell>
        <mxCell id="xtQ_pNsmMMkoU3z8Dazb-62" value="SAVE PROFILE&amp;nbsp;&lt;br&gt;LOCALLY" style="text;html=1;align=center;verticalAlign=middle;resizable=0;points=[];autosize=1;strokeColor=none;fillColor=none;" vertex="1" parent="xtQ_pNsmMMkoU3z8Dazb-2">
          <mxGeometry x="1030" y="337" width="110" height="40" as="geometry" />
        </mxCell>
        <mxCell id="xtQ_pNsmMMkoU3z8Dazb-67" value="RETRIEVE &lt;br&gt;ALL&lt;br&gt;PROFILES" style="text;html=1;align=center;verticalAlign=middle;resizable=0;points=[];autosize=1;strokeColor=none;fillColor=none;" vertex="1" parent="xtQ_pNsmMMkoU3z8Dazb-2">
          <mxGeometry x="1194" y="399" width="80" height="60" as="geometry" />
        </mxCell>
        <mxCell id="xtQ_pNsmMMkoU3z8Dazb-77" value="RETRIEVE &lt;br&gt;TERRAIN &lt;br&gt;ANALYSIS&lt;br&gt;LAYERS" style="text;html=1;align=center;verticalAlign=middle;resizable=0;points=[];autosize=1;strokeColor=none;fillColor=none;" vertex="1" parent="xtQ_pNsmMMkoU3z8Dazb-2">
          <mxGeometry x="1322" y="398" width="80" height="70" as="geometry" />
        </mxCell>
        <mxCell id="xtQ_pNsmMMkoU3z8Dazb-73" style="edgeStyle=orthogonalEdgeStyle;rounded=0;orthogonalLoop=1;jettySize=auto;html=1;exitX=0.5;exitY=0;exitDx=0;exitDy=0;entryX=0.25;entryY=1;entryDx=0;entryDy=0;" edge="1" parent="xtQ_pNsmMMkoU3z8Dazb-2">
          <mxGeometry relative="1" as="geometry">
            <mxPoint x="1037.5" y="610" as="sourcePoint" />
            <mxPoint x="1010" y="270" as="targetPoint" />
            <Array as="points">
              <mxPoint x="1010" y="610" />
            </Array>
          </mxGeometry>
        </mxCell>
        <mxCell id="xtQ_pNsmMMkoU3z8Dazb-79" value="SAVE &lt;br&gt;COSTMAP" style="text;html=1;align=center;verticalAlign=middle;resizable=0;points=[];autosize=1;strokeColor=none;fillColor=none;" vertex="1" parent="xtQ_pNsmMMkoU3z8Dazb-2">
          <mxGeometry x="1411" y="407" width="80" height="40" as="geometry" />
        </mxCell>
        <mxCell id="xtQ_pNsmMMkoU3z8Dazb-81" value="USE&amp;nbsp;&lt;br&gt;LOCALLY&lt;br&gt;SAVED&lt;br&gt;PROFILE" style="text;html=1;align=center;verticalAlign=middle;resizable=0;points=[];autosize=1;strokeColor=none;fillColor=none;" vertex="1" parent="xtQ_pNsmMMkoU3z8Dazb-2">
          <mxGeometry x="1340" y="325" width="80" height="70" as="geometry" />
        </mxCell>
        <mxCell id="xtQ_pNsmMMkoU3z8Dazb-85" value="RETRIEVE&lt;br&gt;COSTMAP" style="text;html=1;align=center;verticalAlign=middle;resizable=0;points=[];autosize=1;strokeColor=none;fillColor=none;" vertex="1" parent="xtQ_pNsmMMkoU3z8Dazb-2">
          <mxGeometry x="1492" y="407" width="80" height="40" as="geometry" />
        </mxCell>
        <mxCell id="xtQ_pNsmMMkoU3z8Dazb-89" value="SAVE&lt;br&gt;GRAPH&lt;br&gt;OBJECTS" style="text;html=1;align=center;verticalAlign=middle;resizable=0;points=[];autosize=1;strokeColor=none;fillColor=none;" vertex="1" parent="xtQ_pNsmMMkoU3z8Dazb-2">
          <mxGeometry x="1559" y="395" width="80" height="60" as="geometry" />
        </mxCell>
        <mxCell id="xtQ_pNsmMMkoU3z8Dazb-83" value="REST API&lt;br&gt;POST &lt;br&gt;REQUEST&lt;div&gt;EMPTY BODY&lt;/div&gt;" style="text;html=1;align=center;verticalAlign=middle;resizable=0;points=[];autosize=1;strokeColor=none;fillColor=none;" vertex="1" parent="xtQ_pNsmMMkoU3z8Dazb-2">
          <mxGeometry x="1437" y="32" width="100" height="70" as="geometry" />
        </mxCell>
        <mxCell id="xtQ_pNsmMMkoU3z8Dazb-95" value="RETRIEVE&lt;br&gt;GRAPH&lt;br&gt;OBJECTS" style="text;html=1;align=center;verticalAlign=middle;resizable=0;points=[];autosize=1;strokeColor=none;fillColor=none;" vertex="1" parent="xtQ_pNsmMMkoU3z8Dazb-2">
          <mxGeometry x="1641" y="399" width="80" height="60" as="geometry" />
        </mxCell>
        <mxCell id="xtQ_pNsmMMkoU3z8Dazb-99" value="SAVE PATH&lt;br&gt;(WKT FORMAT)" style="text;html=1;align=center;verticalAlign=middle;resizable=0;points=[];autosize=1;strokeColor=none;fillColor=none;" vertex="1" parent="xtQ_pNsmMMkoU3z8Dazb-2">
          <mxGeometry x="1710" y="409" width="110" height="40" as="geometry" />
        </mxCell>
        <mxCell id="xtQ_pNsmMMkoU3z8Dazb-105" value="DEM .tiff" style="text;html=1;align=center;verticalAlign=middle;resizable=0;points=[];autosize=1;strokeColor=none;fillColor=none;" vertex="1" parent="xtQ_pNsmMMkoU3z8Dazb-2">
          <mxGeometry x="1930" y="417" width="70" height="30" as="geometry" />
        </mxCell>
        <mxCell id="xtQ_pNsmMMkoU3z8Dazb-111" value="TARGET WORLD COORDINATES&lt;br&gt;(GEOLOCATED TARGETS)" style="text;html=1;align=center;verticalAlign=middle;resizable=0;points=[];autosize=1;strokeColor=none;fillColor=none;" vertex="1" parent="xtQ_pNsmMMkoU3z8Dazb-2">
          <mxGeometry x="1999" y="430" width="210" height="40" as="geometry" />
        </mxCell>
        <mxCell id="xtQ_pNsmMMkoU3z8Dazb-26" style="edgeStyle=orthogonalEdgeStyle;rounded=0;orthogonalLoop=1;jettySize=auto;html=1;exitX=0.5;exitY=1;exitDx=0;exitDy=0;entryX=0;entryY=0.25;entryDx=0;entryDy=0;" edge="1" parent="1" source="xtQ_pNsmMMkoU3z8Dazb-6" target="xtQ_pNsmMMkoU3z8Dazb-3">
          <mxGeometry relative="1" as="geometry">
            <Array as="points">
              <mxPoint x="260" y="140" />
              <mxPoint x="260" y="190" />
              <mxPoint x="180" y="190" />
              <mxPoint x="180" y="380" />
            </Array>
          </mxGeometry>
        </mxCell>
        <mxCell id="xtQ_pNsmMMkoU3z8Dazb-36" style="edgeStyle=orthogonalEdgeStyle;rounded=0;orthogonalLoop=1;jettySize=auto;html=1;exitX=0.5;exitY=1;exitDx=0;exitDy=0;entryX=0;entryY=0.25;entryDx=0;entryDy=0;" edge="1" parent="1" source="xtQ_pNsmMMkoU3z8Dazb-6" target="xtQ_pNsmMMkoU3z8Dazb-35">
          <mxGeometry relative="1" as="geometry">
            <Array as="points">
              <mxPoint x="790" y="140" />
              <mxPoint x="790" y="403" />
            </Array>
          </mxGeometry>
        </mxCell>
        <mxCell id="xtQ_pNsmMMkoU3z8Dazb-52" style="edgeStyle=orthogonalEdgeStyle;rounded=0;orthogonalLoop=1;jettySize=auto;html=1;exitX=0.5;exitY=1;exitDx=0;exitDy=0;entryX=0.5;entryY=0;entryDx=0;entryDy=0;" edge="1" parent="1" source="xtQ_pNsmMMkoU3z8Dazb-6" target="xtQ_pNsmMMkoU3z8Dazb-43">
          <mxGeometry relative="1" as="geometry">
            <Array as="points">
              <mxPoint x="1120" y="140" />
            </Array>
          </mxGeometry>
        </mxCell>
        <mxCell id="xtQ_pNsmMMkoU3z8Dazb-57" style="edgeStyle=orthogonalEdgeStyle;rounded=0;orthogonalLoop=1;jettySize=auto;html=1;exitX=0.5;exitY=1;exitDx=0;exitDy=0;entryX=0.5;entryY=0;entryDx=0;entryDy=0;" edge="1" parent="1" source="xtQ_pNsmMMkoU3z8Dazb-6" target="xtQ_pNsmMMkoU3z8Dazb-45">
          <mxGeometry relative="1" as="geometry">
            <Array as="points">
              <mxPoint x="1250" y="140" />
              <mxPoint x="1250" y="280" />
              <mxPoint x="1290" y="280" />
            </Array>
          </mxGeometry>
        </mxCell>
        <mxCell id="xtQ_pNsmMMkoU3z8Dazb-64" style="edgeStyle=orthogonalEdgeStyle;rounded=0;orthogonalLoop=1;jettySize=auto;html=1;exitX=0.75;exitY=1;exitDx=0;exitDy=0;entryX=0.75;entryY=0;entryDx=0;entryDy=0;" edge="1" parent="1" source="xtQ_pNsmMMkoU3z8Dazb-6" target="xtQ_pNsmMMkoU3z8Dazb-46">
          <mxGeometry relative="1" as="geometry">
            <Array as="points">
              <mxPoint x="1400" y="140" />
              <mxPoint x="1400" y="270" />
              <mxPoint x="1490" y="270" />
            </Array>
          </mxGeometry>
        </mxCell>
        <mxCell id="xtQ_pNsmMMkoU3z8Dazb-70" style="edgeStyle=orthogonalEdgeStyle;rounded=0;orthogonalLoop=1;jettySize=auto;html=1;exitX=0.75;exitY=1;exitDx=0;exitDy=0;" edge="1" parent="1" source="xtQ_pNsmMMkoU3z8Dazb-6" target="xtQ_pNsmMMkoU3z8Dazb-47">
          <mxGeometry relative="1" as="geometry">
            <Array as="points">
              <mxPoint x="1650" y="140" />
            </Array>
          </mxGeometry>
        </mxCell>
        <mxCell id="xtQ_pNsmMMkoU3z8Dazb-92" style="edgeStyle=orthogonalEdgeStyle;rounded=0;orthogonalLoop=1;jettySize=auto;html=1;exitX=0.75;exitY=1;exitDx=0;exitDy=0;entryX=0.5;entryY=0;entryDx=0;entryDy=0;" edge="1" parent="1" source="xtQ_pNsmMMkoU3z8Dazb-6" target="xtQ_pNsmMMkoU3z8Dazb-49">
          <mxGeometry relative="1" as="geometry">
            <Array as="points">
              <mxPoint x="1950" y="140" />
              <mxPoint x="1950" y="290" />
              <mxPoint x="1920" y="290" />
            </Array>
          </mxGeometry>
        </mxCell>
        <mxCell id="xtQ_pNsmMMkoU3z8Dazb-6" value="HMI" style="swimlane;whiteSpace=wrap;html=1;fillColor=#dae8fc;strokeColor=#6c8ebf;swimlaneFillColor=#F4F7FC;" vertex="1" parent="1">
          <mxGeometry x="240" y="100" width="2090" height="40" as="geometry" />
        </mxCell>
        <mxCell id="xtQ_pNsmMMkoU3z8Dazb-13" value="REST API&lt;div&gt;POST REQUEST&lt;/div&gt;&lt;div&gt;EMPTY BODY&lt;/div&gt;" style="text;html=1;align=center;verticalAlign=middle;resizable=0;points=[];autosize=1;strokeColor=none;fillColor=none;" vertex="1" parent="1">
          <mxGeometry x="70" y="220" width="120" height="60" as="geometry" />
        </mxCell>
        <mxCell id="xtQ_pNsmMMkoU3z8Dazb-104" style="edgeStyle=orthogonalEdgeStyle;rounded=0;orthogonalLoop=1;jettySize=auto;html=1;exitX=1;exitY=0.5;exitDx=0;exitDy=0;jumpStyle=none;" edge="1" parent="1" source="xtQ_pNsmMMkoU3z8Dazb-16">
          <mxGeometry relative="1" as="geometry">
            <mxPoint x="2140" y="540" as="targetPoint" />
            <Array as="points">
              <mxPoint x="-10" y="810" />
              <mxPoint x="2140" y="810" />
              <mxPoint x="2140" y="540" />
            </Array>
          </mxGeometry>
        </mxCell>
        <mxCell id="xtQ_pNsmMMkoU3z8Dazb-16" value="MAP SERVER" style="swimlane;whiteSpace=wrap;html=1;startSize=23;fillColor=#cdeb8b;strokeColor=#36393d;swimlaneFillColor=#DEFF97;" vertex="1" parent="1">
          <mxGeometry x="-210" y="380" width="200" height="110" as="geometry" />
        </mxCell>
        <mxCell id="xtQ_pNsmMMkoU3z8Dazb-18" value="LOCAL FILE SYSTEM&lt;br&gt;POSIX FILE PATH" style="text;html=1;align=center;verticalAlign=middle;resizable=0;points=[];autosize=1;strokeColor=none;fillColor=none;" vertex="1" parent="1">
          <mxGeometry x="30" y="360" width="140" height="40" as="geometry" />
        </mxCell>
        <mxCell id="xtQ_pNsmMMkoU3z8Dazb-19" style="edgeStyle=orthogonalEdgeStyle;rounded=0;orthogonalLoop=1;jettySize=auto;html=1;exitX=1;exitY=0.5;exitDx=0;exitDy=0;entryX=0.013;entryY=0.783;entryDx=0;entryDy=0;entryPerimeter=0;" edge="1" parent="1" source="xtQ_pNsmMMkoU3z8Dazb-16" target="xtQ_pNsmMMkoU3z8Dazb-11">
          <mxGeometry relative="1" as="geometry">
            <mxPoint x="-19.999999999999773" y="480" as="sourcePoint" />
            <mxPoint x="390" y="490" as="targetPoint" />
            <Array as="points">
              <mxPoint x="-10" y="472" />
            </Array>
          </mxGeometry>
        </mxCell>
        <mxCell id="xtQ_pNsmMMkoU3z8Dazb-27" style="edgeStyle=orthogonalEdgeStyle;rounded=0;orthogonalLoop=1;jettySize=auto;html=1;exitX=1;exitY=1;exitDx=0;exitDy=0;" edge="1" parent="1" source="xtQ_pNsmMMkoU3z8Dazb-11">
          <mxGeometry relative="1" as="geometry">
            <mxPoint x="660" y="140" as="targetPoint" />
            <Array as="points">
              <mxPoint x="525" y="450" />
              <mxPoint x="660" y="450" />
              <mxPoint x="660" y="140" />
            </Array>
          </mxGeometry>
        </mxCell>
        <mxCell id="xtQ_pNsmMMkoU3z8Dazb-38" style="edgeStyle=orthogonalEdgeStyle;rounded=0;orthogonalLoop=1;jettySize=auto;html=1;exitX=0.25;exitY=0;exitDx=0;exitDy=0;entryX=0;entryY=0.5;entryDx=0;entryDy=0;" edge="1" parent="1" source="xtQ_pNsmMMkoU3z8Dazb-29" target="xtQ_pNsmMMkoU3z8Dazb-35">
          <mxGeometry relative="1" as="geometry">
            <Array as="points">
              <mxPoint x="760" y="840" />
              <mxPoint x="760" y="435" />
            </Array>
          </mxGeometry>
        </mxCell>
        <mxCell id="xtQ_pNsmMMkoU3z8Dazb-74" style="edgeStyle=orthogonalEdgeStyle;rounded=0;orthogonalLoop=1;jettySize=auto;html=1;exitX=0.5;exitY=0;exitDx=0;exitDy=0;entryX=0.25;entryY=1;entryDx=0;entryDy=0;" edge="1" parent="1" source="xtQ_pNsmMMkoU3z8Dazb-29" target="xtQ_pNsmMMkoU3z8Dazb-46">
          <mxGeometry relative="1" as="geometry">
            <Array as="points">
              <mxPoint x="1430" y="840" />
            </Array>
          </mxGeometry>
        </mxCell>
        <mxCell id="xtQ_pNsmMMkoU3z8Dazb-76" style="edgeStyle=orthogonalEdgeStyle;rounded=0;orthogonalLoop=1;jettySize=auto;html=1;exitX=0.5;exitY=0;exitDx=0;exitDy=0;entryX=0;entryY=1;entryDx=0;entryDy=0;" edge="1" parent="1" source="xtQ_pNsmMMkoU3z8Dazb-29" target="xtQ_pNsmMMkoU3z8Dazb-47">
          <mxGeometry relative="1" as="geometry">
            <Array as="points">
              <mxPoint x="1560" y="840" />
            </Array>
          </mxGeometry>
        </mxCell>
        <mxCell id="xtQ_pNsmMMkoU3z8Dazb-84" style="edgeStyle=orthogonalEdgeStyle;rounded=0;orthogonalLoop=1;jettySize=auto;html=1;exitX=0.75;exitY=0;exitDx=0;exitDy=0;" edge="1" parent="1" source="xtQ_pNsmMMkoU3z8Dazb-29">
          <mxGeometry relative="1" as="geometry">
            <mxPoint x="1730" y="500" as="targetPoint" />
            <Array as="points">
              <mxPoint x="1730" y="840" />
              <mxPoint x="1730" y="500" />
            </Array>
          </mxGeometry>
        </mxCell>
        <mxCell id="xtQ_pNsmMMkoU3z8Dazb-29" value="SQL DATABASE" style="swimlane;whiteSpace=wrap;html=1;startSize=23;fillColor=#f5f5f5;fontColor=#333333;strokeColor=#666666;swimlaneFillColor=#FFFFFF;" vertex="1" parent="1">
          <mxGeometry x="235" y="840" width="2105" height="40" as="geometry" />
        </mxCell>
        <mxCell id="xtQ_pNsmMMkoU3z8Dazb-33" style="edgeStyle=orthogonalEdgeStyle;rounded=0;orthogonalLoop=1;jettySize=auto;html=1;exitX=0;exitY=0.25;exitDx=0;exitDy=0;entryX=0.985;entryY=0.203;entryDx=0;entryDy=0;entryPerimeter=0;" edge="1" parent="1" source="xtQ_pNsmMMkoU3z8Dazb-11" target="xtQ_pNsmMMkoU3z8Dazb-16">
          <mxGeometry relative="1" as="geometry" />
        </mxCell>
        <mxCell id="xtQ_pNsmMMkoU3z8Dazb-50" style="edgeStyle=orthogonalEdgeStyle;rounded=0;orthogonalLoop=1;jettySize=auto;html=1;exitX=0.5;exitY=1;exitDx=0;exitDy=0;entryX=0.34;entryY=0.089;entryDx=0;entryDy=0;entryPerimeter=0;" edge="1" parent="1" source="xtQ_pNsmMMkoU3z8Dazb-35" target="xtQ_pNsmMMkoU3z8Dazb-29">
          <mxGeometry relative="1" as="geometry" />
        </mxCell>
        <mxCell id="xtQ_pNsmMMkoU3z8Dazb-51" style="edgeStyle=orthogonalEdgeStyle;rounded=0;orthogonalLoop=1;jettySize=auto;html=1;exitX=0.5;exitY=1;exitDx=0;exitDy=0;entryX=0.109;entryY=0.043;entryDx=0;entryDy=0;entryPerimeter=0;" edge="1" parent="1" source="xtQ_pNsmMMkoU3z8Dazb-11" target="xtQ_pNsmMMkoU3z8Dazb-29">
          <mxGeometry relative="1" as="geometry" />
        </mxCell>
        <mxCell id="xtQ_pNsmMMkoU3z8Dazb-53" value="REST API&lt;br&gt;POST REQUEST&lt;div&gt;BODY: PROFILE NAME,&lt;/div&gt;&lt;div&gt;LAYER WEIGHTS&lt;br&gt;(JSON)&lt;/div&gt;" style="text;html=1;align=center;verticalAlign=middle;resizable=0;points=[];autosize=1;strokeColor=none;fillColor=none;" vertex="1" parent="1">
          <mxGeometry x="970" y="145" width="160" height="90" as="geometry" />
        </mxCell>
        <mxCell id="xtQ_pNsmMMkoU3z8Dazb-54" style="edgeStyle=orthogonalEdgeStyle;rounded=0;orthogonalLoop=1;jettySize=auto;html=1;exitX=0.5;exitY=1;exitDx=0;exitDy=0;entryX=0.42;entryY=0;entryDx=0;entryDy=0;entryPerimeter=0;" edge="1" parent="1" source="xtQ_pNsmMMkoU3z8Dazb-43" target="xtQ_pNsmMMkoU3z8Dazb-29">
          <mxGeometry relative="1" as="geometry" />
        </mxCell>
        <mxCell id="xtQ_pNsmMMkoU3z8Dazb-58" value="REST API&lt;br&gt;POST REQUEST&lt;div&gt;BODY: &lt;br&gt;PROFILE NAME &lt;br&gt;(JSON)&lt;/div&gt;" style="text;html=1;align=center;verticalAlign=middle;resizable=0;points=[];autosize=1;strokeColor=none;fillColor=none;" vertex="1" parent="1">
          <mxGeometry x="1240" y="140" width="120" height="90" as="geometry" />
        </mxCell>
        <mxCell id="xtQ_pNsmMMkoU3z8Dazb-65" value="REST API&lt;br&gt;GET REQUEST&lt;div&gt;EMPTY BODY&lt;/div&gt;" style="text;html=1;align=center;verticalAlign=middle;resizable=0;points=[];autosize=1;strokeColor=none;fillColor=none;" vertex="1" parent="1">
          <mxGeometry x="1390" y="163" width="110" height="60" as="geometry" />
        </mxCell>
        <mxCell id="xtQ_pNsmMMkoU3z8Dazb-69" value="RESPONSE:&amp;nbsp;&lt;br&gt;PROFILE NAMES&lt;br&gt;(JSON)" style="text;html=1;align=center;verticalAlign=middle;resizable=0;points=[];autosize=1;strokeColor=none;fillColor=none;" vertex="1" parent="1">
          <mxGeometry x="1501" y="163" width="120" height="60" as="geometry" />
        </mxCell>
        <mxCell id="xtQ_pNsmMMkoU3z8Dazb-71" value="REST API&lt;br&gt;POST &lt;br&gt;REQUEST&lt;div&gt;EMPTY BODY&lt;/div&gt;" style="text;html=1;align=center;verticalAlign=middle;resizable=0;points=[];autosize=1;strokeColor=none;fillColor=none;" vertex="1" parent="1">
          <mxGeometry x="1642" y="165" width="100" height="70" as="geometry" />
        </mxCell>
        <mxCell id="xtQ_pNsmMMkoU3z8Dazb-78" style="edgeStyle=orthogonalEdgeStyle;rounded=0;orthogonalLoop=1;jettySize=auto;html=1;exitX=0.75;exitY=1;exitDx=0;exitDy=0;entryX=0.672;entryY=-0.024;entryDx=0;entryDy=0;entryPerimeter=0;" edge="1" parent="1" source="xtQ_pNsmMMkoU3z8Dazb-47" target="xtQ_pNsmMMkoU3z8Dazb-29">
          <mxGeometry relative="1" as="geometry" />
        </mxCell>
        <mxCell id="xtQ_pNsmMMkoU3z8Dazb-82" style="edgeStyle=orthogonalEdgeStyle;rounded=0;orthogonalLoop=1;jettySize=auto;html=1;exitX=0.75;exitY=1;exitDx=0;exitDy=0;" edge="1" parent="1" source="xtQ_pNsmMMkoU3z8Dazb-6">
          <mxGeometry relative="1" as="geometry">
            <mxPoint x="1760" y="370" as="targetPoint" />
            <Array as="points">
              <mxPoint x="1760" y="140" />
              <mxPoint x="1760" y="370" />
            </Array>
          </mxGeometry>
        </mxCell>
        <mxCell id="xtQ_pNsmMMkoU3z8Dazb-88" style="edgeStyle=orthogonalEdgeStyle;rounded=0;orthogonalLoop=1;jettySize=auto;html=1;exitX=0.75;exitY=1;exitDx=0;exitDy=0;" edge="1" parent="1" source="xtQ_pNsmMMkoU3z8Dazb-48">
          <mxGeometry relative="1" as="geometry">
            <mxPoint x="1800" y="840" as="targetPoint" />
          </mxGeometry>
        </mxCell>
        <mxCell id="xtQ_pNsmMMkoU3z8Dazb-91" value="ZMQ PUB/SUB&lt;div&gt;TOPICS:&lt;/div&gt;&lt;div&gt;graph-building-progress&lt;/div&gt;&lt;div&gt;graph-building-visualization&lt;/div&gt;" style="text;html=1;align=center;verticalAlign=middle;resizable=0;points=[];autosize=1;strokeColor=none;fillColor=none;" vertex="1" parent="1">
          <mxGeometry x="1760" y="160" width="170" height="70" as="geometry" />
        </mxCell>
        <mxCell id="xtQ_pNsmMMkoU3z8Dazb-93" value="REST API&lt;br&gt;POST REQUEST&lt;div&gt;BODY: &lt;br&gt;STARTING POINT,&lt;br&gt;ENDING POINT&lt;br&gt;(JSON)&lt;/div&gt;" style="text;html=1;align=center;verticalAlign=middle;resizable=0;points=[];autosize=1;strokeColor=none;fillColor=none;" vertex="1" parent="1">
          <mxGeometry x="1937" y="136" width="130" height="100" as="geometry" />
        </mxCell>
        <mxCell id="xtQ_pNsmMMkoU3z8Dazb-97" style="edgeStyle=orthogonalEdgeStyle;rounded=0;orthogonalLoop=1;jettySize=auto;html=1;exitX=0.75;exitY=0;exitDx=0;exitDy=0;entryX=0.162;entryY=0.984;entryDx=0;entryDy=0;entryPerimeter=0;" edge="1" parent="1" source="xtQ_pNsmMMkoU3z8Dazb-29" target="xtQ_pNsmMMkoU3z8Dazb-49">
          <mxGeometry relative="1" as="geometry">
            <Array as="points">
              <mxPoint x="1880" y="840" />
              <mxPoint x="1880" y="670" />
            </Array>
          </mxGeometry>
        </mxCell>
        <mxCell id="xtQ_pNsmMMkoU3z8Dazb-98" style="edgeStyle=orthogonalEdgeStyle;rounded=0;orthogonalLoop=1;jettySize=auto;html=1;exitX=0.75;exitY=1;exitDx=0;exitDy=0;entryX=0.815;entryY=-0.036;entryDx=0;entryDy=0;entryPerimeter=0;" edge="1" parent="1" source="xtQ_pNsmMMkoU3z8Dazb-49" target="xtQ_pNsmMMkoU3z8Dazb-29">
          <mxGeometry relative="1" as="geometry">
            <Array as="points">
              <mxPoint x="1950" y="669" />
            </Array>
          </mxGeometry>
        </mxCell>
        <mxCell id="xtQ_pNsmMMkoU3z8Dazb-101" style="edgeStyle=orthogonalEdgeStyle;rounded=0;orthogonalLoop=1;jettySize=auto;html=1;exitX=0;exitY=0.25;exitDx=0;exitDy=0;" edge="1" parent="1" source="xtQ_pNsmMMkoU3z8Dazb-100">
          <mxGeometry relative="1" as="geometry">
            <mxPoint x="2300" y="407.73913043478274" as="targetPoint" />
          </mxGeometry>
        </mxCell>
        <mxCell id="xtQ_pNsmMMkoU3z8Dazb-106" style="edgeStyle=orthogonalEdgeStyle;rounded=0;orthogonalLoop=1;jettySize=auto;html=1;exitX=0;exitY=0.5;exitDx=0;exitDy=0;" edge="1" parent="1" source="xtQ_pNsmMMkoU3z8Dazb-100">
          <mxGeometry relative="1" as="geometry">
            <mxPoint x="2300" y="434.69565217391323" as="targetPoint" />
          </mxGeometry>
        </mxCell>
        <mxCell id="xtQ_pNsmMMkoU3z8Dazb-100" value="IMINT" style="swimlane;whiteSpace=wrap;html=1;startSize=23;fillColor=#647687;fontColor=#ffffff;strokeColor=#314354;swimlaneFillColor=#AFCDEB;" vertex="1" parent="1">
          <mxGeometry x="2600" y="380" width="200" height="110" as="geometry" />
        </mxCell>
        <mxCell id="xtQ_pNsmMMkoU3z8Dazb-102" value="CAMERA INTRINSICS, EXTRINSICS&lt;br&gt;&lt;div&gt;AIRCRAFT TRANSFORM&lt;br&gt;MECHANICAL PARAMETERS&lt;/div&gt;" style="text;html=1;align=center;verticalAlign=middle;resizable=0;points=[];autosize=1;strokeColor=none;fillColor=none;" vertex="1" parent="1">
          <mxGeometry x="2360" y="350" width="220" height="60" as="geometry" />
        </mxCell>
        <mxCell id="xtQ_pNsmMMkoU3z8Dazb-107" value="TARGET PIXEL COORDINATES" style="text;html=1;align=center;verticalAlign=middle;resizable=0;points=[];autosize=1;strokeColor=none;fillColor=none;" vertex="1" parent="1">
          <mxGeometry x="2360" y="430" width="200" height="30" as="geometry" />
        </mxCell>
        <mxCell id="xtQ_pNsmMMkoU3z8Dazb-109" value="TARGET WORLD COORDINATES&lt;br&gt;(GEOLOCATED TARGETS)" style="text;html=1;align=center;verticalAlign=middle;resizable=0;points=[];autosize=1;strokeColor=none;fillColor=none;" vertex="1" parent="1">
          <mxGeometry x="2355" y="491" width="210" height="40" as="geometry" />
        </mxCell>
        <mxCell id="xtQ_pNsmMMkoU3z8Dazb-110" style="edgeStyle=orthogonalEdgeStyle;rounded=0;orthogonalLoop=1;jettySize=auto;html=1;exitX=0.75;exitY=1;exitDx=0;exitDy=0;entryX=0.948;entryY=-0.002;entryDx=0;entryDy=0;entryPerimeter=0;" edge="1" parent="1" source="xtQ_pNsmMMkoU3z8Dazb-5" target="xtQ_pNsmMMkoU3z8Dazb-29">
          <mxGeometry relative="1" as="geometry">
            <Array as="points">
              <mxPoint x="2230" y="540" />
              <mxPoint x="2230" y="837" />
            </Array>
          </mxGeometry>
        </mxCell>
      </root>
    </mxGraphModel>
  </diagram>
</mxfile>
